<mxfile host="app.diagrams.net" modified="2023-06-25T09:06:39.220Z" agent="Mozilla/5.0 (Macintosh; Intel Mac OS X 10_15_7) AppleWebKit/537.36 (KHTML, like Gecko) Chrome/114.0.0.0 Safari/537.36" etag="cgKB7MWKrK3djRI2DMSp" version="21.5.0" type="github">
  <diagram id="C5RBs43oDa-KdzZeNtuy" name="Page-1">
    <mxGraphModel dx="954" dy="1678" grid="1" gridSize="10" guides="1" tooltips="1" connect="1" arrows="1" fold="1" page="1" pageScale="1" pageWidth="827" pageHeight="1169" math="0" shadow="0">
      <root>
        <mxCell id="WIyWlLk6GJQsqaUBKTNV-0" />
        <mxCell id="WIyWlLk6GJQsqaUBKTNV-1" parent="WIyWlLk6GJQsqaUBKTNV-0" />
        <mxCell id="5qFwOOP0-v9RnZ_ejQs6-36" value="&lt;h2 style=&quot;line-height: 20%;&quot;&gt;&lt;br&gt;&lt;/h2&gt;" style="rounded=0;whiteSpace=wrap;html=1;align=left;strokeColor=#36393d;fillColor=#f9f7ed;" parent="WIyWlLk6GJQsqaUBKTNV-1" vertex="1">
          <mxGeometry x="10" y="585" width="500" height="310" as="geometry" />
        </mxCell>
        <mxCell id="5qFwOOP0-v9RnZ_ejQs6-34" value="&lt;h2 style=&quot;line-height: 20%;&quot;&gt;&lt;br&gt;&lt;/h2&gt;" style="rounded=0;whiteSpace=wrap;html=1;align=left;strokeColor=#36393d;fillColor=#f9f7ed;" parent="WIyWlLk6GJQsqaUBKTNV-1" vertex="1">
          <mxGeometry x="10" y="260" width="500" height="310" as="geometry" />
        </mxCell>
        <mxCell id="5qFwOOP0-v9RnZ_ejQs6-32" value="&lt;h2 style=&quot;line-height: 20%;&quot;&gt;&lt;br&gt;&lt;/h2&gt;" style="rounded=0;whiteSpace=wrap;html=1;align=left;strokeColor=#36393d;fillColor=#f9f7ed;" parent="WIyWlLk6GJQsqaUBKTNV-1" vertex="1">
          <mxGeometry x="10" y="30" width="500" height="220" as="geometry" />
        </mxCell>
        <mxCell id="5qFwOOP0-v9RnZ_ejQs6-5" style="edgeStyle=orthogonalEdgeStyle;rounded=0;orthogonalLoop=1;jettySize=auto;html=1;entryX=0.333;entryY=-0.05;entryDx=0;entryDy=0;entryPerimeter=0;exitX=0.317;exitY=1.063;exitDx=0;exitDy=0;exitPerimeter=0;" parent="WIyWlLk6GJQsqaUBKTNV-1" edge="1">
          <mxGeometry relative="1" as="geometry">
            <mxPoint x="319.96000000000004" y="126" as="targetPoint" />
            <mxPoint x="318.03999999999996" y="170.51999999999998" as="sourcePoint" />
            <Array as="points">
              <mxPoint x="320" y="171" />
              <mxPoint x="320" y="198" />
              <mxPoint x="210" y="198" />
              <mxPoint x="210" y="98" />
              <mxPoint x="320" y="98" />
            </Array>
          </mxGeometry>
        </mxCell>
        <mxCell id="5qFwOOP0-v9RnZ_ejQs6-6" value="for 循环&lt;br style=&quot;box-sizing: initial; -webkit-tap-highlight-color: rgba(0, 0, 0, 0); font-size: 13px;&quot;&gt;（遍历producer）" style="edgeLabel;html=1;align=center;verticalAlign=middle;resizable=0;points=[];fontSize=13;" parent="5qFwOOP0-v9RnZ_ejQs6-5" vertex="1" connectable="0">
          <mxGeometry x="0.1779" y="2" relative="1" as="geometry">
            <mxPoint y="34" as="offset" />
          </mxGeometry>
        </mxCell>
        <mxCell id="WIyWlLk6GJQsqaUBKTNV-3" value="Horizontal Fusion" style="rounded=1;whiteSpace=wrap;html=1;fontSize=13;glass=0;strokeWidth=1;shadow=0;fillColor=#dae8fc;strokeColor=#6c8ebf;" parent="WIyWlLk6GJQsqaUBKTNV-1" vertex="1">
          <mxGeometry x="280" y="130" width="180" height="40" as="geometry" />
        </mxCell>
        <mxCell id="5qFwOOP0-v9RnZ_ejQs6-1" value="开始" style="strokeWidth=2;html=1;shape=mxgraph.flowchart.start_2;whiteSpace=wrap;" parent="WIyWlLk6GJQsqaUBKTNV-1" vertex="1">
          <mxGeometry x="379" y="-50" width="70" height="70" as="geometry" />
        </mxCell>
        <mxCell id="5qFwOOP0-v9RnZ_ejQs6-7" style="edgeStyle=orthogonalEdgeStyle;rounded=0;orthogonalLoop=1;jettySize=auto;html=1;exitX=0.75;exitY=1;exitDx=0;exitDy=0;" parent="WIyWlLk6GJQsqaUBKTNV-1" source="WIyWlLk6GJQsqaUBKTNV-3" edge="1">
          <mxGeometry relative="1" as="geometry">
            <mxPoint x="377" y="130" as="targetPoint" />
            <mxPoint x="347" y="200" as="sourcePoint" />
            <Array as="points">
              <mxPoint x="370" y="230" />
              <mxPoint x="110" y="230" />
              <mxPoint x="110" y="70" />
              <mxPoint x="377" y="70" />
            </Array>
          </mxGeometry>
        </mxCell>
        <mxCell id="5qFwOOP0-v9RnZ_ejQs6-8" value="&lt;font style=&quot;font-size: 13px;&quot;&gt;while 循环&lt;br style=&quot;box-sizing: initial; -webkit-tap-highlight-color: rgba(0, 0, 0, 0);&quot;&gt;重复做水平融合&lt;/font&gt;" style="edgeLabel;html=1;align=center;verticalAlign=middle;resizable=0;points=[];" parent="5qFwOOP0-v9RnZ_ejQs6-7" vertex="1" connectable="0">
          <mxGeometry x="0.1779" y="2" relative="1" as="geometry">
            <mxPoint x="2" y="56" as="offset" />
          </mxGeometry>
        </mxCell>
        <mxCell id="5qFwOOP0-v9RnZ_ejQs6-9" style="edgeStyle=orthogonalEdgeStyle;rounded=0;orthogonalLoop=1;jettySize=auto;html=1;entryX=0.333;entryY=-0.05;entryDx=0;entryDy=0;entryPerimeter=0;exitX=0.211;exitY=1.088;exitDx=0;exitDy=0;exitPerimeter=0;" parent="WIyWlLk6GJQsqaUBKTNV-1" edge="1">
          <mxGeometry relative="1" as="geometry">
            <mxPoint x="319.96000000000004" y="323" as="targetPoint" />
            <mxPoint x="317.98" y="450.52" as="sourcePoint" />
            <Array as="points">
              <mxPoint x="320" y="451" />
              <mxPoint x="320" y="477" />
              <mxPoint x="210" y="477" />
              <mxPoint x="210" y="295" />
              <mxPoint x="320" y="295" />
            </Array>
          </mxGeometry>
        </mxCell>
        <mxCell id="5qFwOOP0-v9RnZ_ejQs6-10" value="for 循环&lt;br style=&quot;box-sizing: initial; -webkit-tap-highlight-color: rgba(0, 0, 0, 0); font-size: 13px;&quot;&gt;（遍历producer）" style="edgeLabel;html=1;align=center;verticalAlign=middle;resizable=0;points=[];fontSize=13;" parent="5qFwOOP0-v9RnZ_ejQs6-9" vertex="1" connectable="0">
          <mxGeometry x="0.1779" y="2" relative="1" as="geometry">
            <mxPoint y="34" as="offset" />
          </mxGeometry>
        </mxCell>
        <mxCell id="5qFwOOP0-v9RnZ_ejQs6-11" value="Horizontal Fusion" style="rounded=1;whiteSpace=wrap;html=1;fontSize=13;glass=0;strokeWidth=1;shadow=0;fillColor=#f8cecc;strokeColor=#b85450;" parent="WIyWlLk6GJQsqaUBKTNV-1" vertex="1">
          <mxGeometry x="280" y="330" width="180" height="40" as="geometry" />
        </mxCell>
        <mxCell id="5qFwOOP0-v9RnZ_ejQs6-12" style="edgeStyle=orthogonalEdgeStyle;rounded=0;orthogonalLoop=1;jettySize=auto;html=1;exitX=0.75;exitY=1;exitDx=0;exitDy=0;" parent="WIyWlLk6GJQsqaUBKTNV-1" source="5qFwOOP0-v9RnZ_ejQs6-11" edge="1">
          <mxGeometry relative="1" as="geometry">
            <mxPoint x="377" y="330" as="targetPoint" />
            <mxPoint x="347" y="400" as="sourcePoint" />
            <Array as="points">
              <mxPoint x="377" y="370" />
              <mxPoint x="377" y="550" />
              <mxPoint x="110" y="550" />
              <mxPoint x="110" y="270" />
              <mxPoint x="377" y="270" />
            </Array>
          </mxGeometry>
        </mxCell>
        <mxCell id="5qFwOOP0-v9RnZ_ejQs6-13" value="while 循环&lt;br style=&quot;box-sizing: initial; -webkit-tap-highlight-color: rgba(0, 0, 0, 0); font-size: 13px;&quot;&gt;重复做垂直融合" style="edgeLabel;html=1;align=center;verticalAlign=middle;resizable=0;points=[];fontSize=13;" parent="5qFwOOP0-v9RnZ_ejQs6-12" vertex="1" connectable="0">
          <mxGeometry x="0.1779" y="2" relative="1" as="geometry">
            <mxPoint x="2" y="28" as="offset" />
          </mxGeometry>
        </mxCell>
        <mxCell id="5qFwOOP0-v9RnZ_ejQs6-16" style="edgeStyle=orthogonalEdgeStyle;rounded=0;orthogonalLoop=1;jettySize=auto;html=1;exitX=0.5;exitY=1;exitDx=0;exitDy=0;exitPerimeter=0;entryX=0.75;entryY=0;entryDx=0;entryDy=0;shape=flexArrow;endWidth=6;endSize=6.83;" parent="WIyWlLk6GJQsqaUBKTNV-1" target="5qFwOOP0-v9RnZ_ejQs6-11" edge="1">
          <mxGeometry relative="1" as="geometry">
            <mxPoint x="414.5" y="170" as="sourcePoint" />
            <mxPoint x="414.5" y="270" as="targetPoint" />
          </mxGeometry>
        </mxCell>
        <mxCell id="5qFwOOP0-v9RnZ_ejQs6-17" value="Vertical Fusion" style="rounded=1;whiteSpace=wrap;html=1;fontSize=13;glass=0;strokeWidth=1;shadow=0;fillColor=#f8cecc;strokeColor=#b85450;" parent="WIyWlLk6GJQsqaUBKTNV-1" vertex="1">
          <mxGeometry x="280" y="410" width="180" height="40" as="geometry" />
        </mxCell>
        <mxCell id="5qFwOOP0-v9RnZ_ejQs6-18" value="Input Fusion" style="rounded=1;whiteSpace=wrap;html=1;fontSize=13;glass=0;strokeWidth=1;shadow=0;fillColor=#f8cecc;strokeColor=#b85450;" parent="WIyWlLk6GJQsqaUBKTNV-1" vertex="1">
          <mxGeometry x="280" y="490" width="180" height="40" as="geometry" />
        </mxCell>
        <mxCell id="5qFwOOP0-v9RnZ_ejQs6-19" style="edgeStyle=orthogonalEdgeStyle;rounded=0;orthogonalLoop=1;jettySize=auto;html=1;exitX=0.5;exitY=1;exitDx=0;exitDy=0;exitPerimeter=0;shape=flexArrow;endWidth=6;endSize=6.83;" parent="WIyWlLk6GJQsqaUBKTNV-1" edge="1">
          <mxGeometry relative="1" as="geometry">
            <mxPoint x="414.5" y="370" as="sourcePoint" />
            <mxPoint x="415" y="410" as="targetPoint" />
          </mxGeometry>
        </mxCell>
        <mxCell id="5qFwOOP0-v9RnZ_ejQs6-20" style="edgeStyle=orthogonalEdgeStyle;rounded=0;orthogonalLoop=1;jettySize=auto;html=1;exitX=0.5;exitY=1;exitDx=0;exitDy=0;exitPerimeter=0;shape=flexArrow;endWidth=6;endSize=6.83;" parent="WIyWlLk6GJQsqaUBKTNV-1" edge="1">
          <mxGeometry relative="1" as="geometry">
            <mxPoint x="415.5" y="450" as="sourcePoint" />
            <mxPoint x="416" y="490" as="targetPoint" />
          </mxGeometry>
        </mxCell>
        <mxCell id="5qFwOOP0-v9RnZ_ejQs6-21" style="edgeStyle=orthogonalEdgeStyle;rounded=0;orthogonalLoop=1;jettySize=auto;html=1;entryX=0.333;entryY=-0.05;entryDx=0;entryDy=0;entryPerimeter=0;exitX=0.211;exitY=1.088;exitDx=0;exitDy=0;exitPerimeter=0;" parent="WIyWlLk6GJQsqaUBKTNV-1" edge="1">
          <mxGeometry relative="1" as="geometry">
            <mxPoint x="319.96000000000004" y="653" as="targetPoint" />
            <mxPoint x="317.98" y="780.52" as="sourcePoint" />
            <Array as="points">
              <mxPoint x="320" y="781" />
              <mxPoint x="320" y="807" />
              <mxPoint x="210" y="807" />
              <mxPoint x="210" y="625" />
              <mxPoint x="320" y="625" />
            </Array>
          </mxGeometry>
        </mxCell>
        <mxCell id="5qFwOOP0-v9RnZ_ejQs6-22" value="for 循环&lt;br style=&quot;box-sizing: initial; -webkit-tap-highlight-color: rgba(0, 0, 0, 0); font-size: 13px;&quot;&gt;（遍历producer）" style="edgeLabel;html=1;align=center;verticalAlign=middle;resizable=0;points=[];fontSize=13;" parent="5qFwOOP0-v9RnZ_ejQs6-21" vertex="1" connectable="0">
          <mxGeometry x="0.1779" y="2" relative="1" as="geometry">
            <mxPoint y="34" as="offset" />
          </mxGeometry>
        </mxCell>
        <mxCell id="5qFwOOP0-v9RnZ_ejQs6-23" value="Recompute Fusion" style="rounded=1;whiteSpace=wrap;html=1;fontSize=13;glass=0;strokeWidth=1;shadow=0;fillColor=#e1d5e7;strokeColor=#9673a6;" parent="WIyWlLk6GJQsqaUBKTNV-1" vertex="1">
          <mxGeometry x="280" y="660" width="180" height="40" as="geometry" />
        </mxCell>
        <mxCell id="5qFwOOP0-v9RnZ_ejQs6-24" style="edgeStyle=orthogonalEdgeStyle;rounded=0;orthogonalLoop=1;jettySize=auto;html=1;exitX=0.75;exitY=1;exitDx=0;exitDy=0;" parent="WIyWlLk6GJQsqaUBKTNV-1" source="5qFwOOP0-v9RnZ_ejQs6-23" edge="1">
          <mxGeometry relative="1" as="geometry">
            <mxPoint x="377" y="660" as="targetPoint" />
            <mxPoint x="347" y="730" as="sourcePoint" />
            <Array as="points">
              <mxPoint x="377" y="700" />
              <mxPoint x="377" y="880" />
              <mxPoint x="110" y="880" />
              <mxPoint x="110" y="600" />
              <mxPoint x="377" y="600" />
            </Array>
          </mxGeometry>
        </mxCell>
        <mxCell id="5qFwOOP0-v9RnZ_ejQs6-25" value="while 循环&lt;br style=&quot;box-sizing: initial; -webkit-tap-highlight-color: rgba(0, 0, 0, 0); font-size: 13px;&quot;&gt;重复做Recompute" style="edgeLabel;html=1;align=center;verticalAlign=middle;resizable=0;points=[];fontSize=13;" parent="5qFwOOP0-v9RnZ_ejQs6-24" vertex="1" connectable="0">
          <mxGeometry x="0.1779" y="2" relative="1" as="geometry">
            <mxPoint x="2" y="28" as="offset" />
          </mxGeometry>
        </mxCell>
        <mxCell id="5qFwOOP0-v9RnZ_ejQs6-26" value="Vertical Fusion" style="rounded=1;whiteSpace=wrap;html=1;fontSize=13;glass=0;strokeWidth=1;shadow=0;fillColor=#e1d5e7;strokeColor=#9673a6;" parent="WIyWlLk6GJQsqaUBKTNV-1" vertex="1">
          <mxGeometry x="280" y="740" width="180" height="40" as="geometry" />
        </mxCell>
        <mxCell id="5qFwOOP0-v9RnZ_ejQs6-27" value="Input Fusion" style="rounded=1;whiteSpace=wrap;html=1;fontSize=13;glass=0;strokeWidth=1;shadow=0;fillColor=#e1d5e7;strokeColor=#9673a6;" parent="WIyWlLk6GJQsqaUBKTNV-1" vertex="1">
          <mxGeometry x="280" y="820" width="180" height="40" as="geometry" />
        </mxCell>
        <mxCell id="5qFwOOP0-v9RnZ_ejQs6-28" style="edgeStyle=orthogonalEdgeStyle;rounded=0;orthogonalLoop=1;jettySize=auto;html=1;exitX=0.5;exitY=1;exitDx=0;exitDy=0;exitPerimeter=0;shape=flexArrow;endWidth=6;endSize=6.83;" parent="WIyWlLk6GJQsqaUBKTNV-1" edge="1">
          <mxGeometry relative="1" as="geometry">
            <mxPoint x="414.5" y="700" as="sourcePoint" />
            <mxPoint x="415" y="740" as="targetPoint" />
          </mxGeometry>
        </mxCell>
        <mxCell id="5qFwOOP0-v9RnZ_ejQs6-29" style="edgeStyle=orthogonalEdgeStyle;rounded=0;orthogonalLoop=1;jettySize=auto;html=1;exitX=0.5;exitY=1;exitDx=0;exitDy=0;exitPerimeter=0;shape=flexArrow;endWidth=6;endSize=6.83;" parent="WIyWlLk6GJQsqaUBKTNV-1" edge="1">
          <mxGeometry relative="1" as="geometry">
            <mxPoint x="415.5" y="780" as="sourcePoint" />
            <mxPoint x="416" y="820" as="targetPoint" />
          </mxGeometry>
        </mxCell>
        <mxCell id="5qFwOOP0-v9RnZ_ejQs6-30" style="edgeStyle=orthogonalEdgeStyle;rounded=0;orthogonalLoop=1;jettySize=auto;html=1;exitX=0.5;exitY=1;exitDx=0;exitDy=0;exitPerimeter=0;shape=flexArrow;endWidth=6;endSize=6.83;" parent="WIyWlLk6GJQsqaUBKTNV-1" edge="1">
          <mxGeometry relative="1" as="geometry">
            <mxPoint x="414.5" y="530" as="sourcePoint" />
            <mxPoint x="415" y="660" as="targetPoint" />
          </mxGeometry>
        </mxCell>
        <mxCell id="5qFwOOP0-v9RnZ_ejQs6-33" value="&lt;h2 style=&quot;border-color: var(--border-color); color: rgb(0, 0, 0); font-family: Helvetica; font-style: normal; font-variant-ligatures: normal; font-variant-caps: normal; letter-spacing: normal; orphans: 2; text-align: left; text-indent: 0px; text-transform: none; widows: 2; word-spacing: 0px; -webkit-text-stroke-width: 0px; background-color: rgb(251, 251, 251); text-decoration-thickness: initial; text-decoration-style: initial; text-decoration-color: initial; line-height: 3.6px;&quot;&gt;融合循环1&lt;/h2&gt;" style="text;whiteSpace=wrap;html=1;" parent="WIyWlLk6GJQsqaUBKTNV-1" vertex="1">
          <mxGeometry x="10" y="31" width="90" height="50" as="geometry" />
        </mxCell>
        <mxCell id="5qFwOOP0-v9RnZ_ejQs6-35" value="&lt;h2 style=&quot;border-color: var(--border-color); line-height: 3.6px;&quot;&gt;融合循环2&lt;/h2&gt;" style="text;whiteSpace=wrap;html=1;" parent="WIyWlLk6GJQsqaUBKTNV-1" vertex="1">
          <mxGeometry x="10" y="260" width="90" height="50" as="geometry" />
        </mxCell>
        <mxCell id="5qFwOOP0-v9RnZ_ejQs6-37" value="&lt;h2 style=&quot;border-color: var(--border-color); line-height: 3.6px;&quot;&gt;融合循环3&lt;/h2&gt;" style="text;whiteSpace=wrap;html=1;" parent="WIyWlLk6GJQsqaUBKTNV-1" vertex="1">
          <mxGeometry x="10" y="585" width="90" height="50" as="geometry" />
        </mxCell>
        <mxCell id="5qFwOOP0-v9RnZ_ejQs6-40" style="edgeStyle=orthogonalEdgeStyle;rounded=0;orthogonalLoop=1;jettySize=auto;html=1;shape=flexArrow;endWidth=6;endSize=6.83;exitX=0.5;exitY=1;exitDx=0;exitDy=0;exitPerimeter=0;" parent="WIyWlLk6GJQsqaUBKTNV-1" source="5qFwOOP0-v9RnZ_ejQs6-1" edge="1">
          <mxGeometry relative="1" as="geometry">
            <mxPoint x="414" y="60" as="sourcePoint" />
            <mxPoint x="413.5" y="130" as="targetPoint" />
          </mxGeometry>
        </mxCell>
      </root>
    </mxGraphModel>
  </diagram>
</mxfile>
